P3
24 26
255
255 255 255 255 255 255 255 255 255 255 255 255 255 255 255 255 255 255 255 255 255   0   0   0   0   0   0   0   0   0   0   0   0   0   0   0   0   0   0   0   0   0   0   0   0   0   0   0   0   0   0 255 255 255 255 255 255 255 255 255 255 255 255 255 255 255 255 255 255 255 255 255 
255 255 255 255 255 255 255 255 255 255 255 255 255 255 255   0   0   0   0   0   0 102  51   0 153  76   0 153  76   0 102  51   0 102  51   0 102  51   0 102  51   0 102  51   0 102  51   0 102  51   0   0   0   0   0   0   0 255 255 255 255 255 255 255 255 255 255 255 255 255 255 255 
255 255 255 255 255 255 255 255 255 255 255 255   0   0   0 102  51   0 102  51   0 153  76   0 153  76   0 102  51   0 102  51   0 102  51   0 102  51   0 102  51   0 102  51   0 102  51   0 102  51   0 102  51   0 102  51   0   0   0   0 255 255 255 255 255 255 255 255 255 255 255 255 
255 255 255 255 255 255 255 255 255 255 255 255   0   0   0 102  51   0 153  76   0 153  76   0 153  76   0 102  51   0 102  51   0 102  51   0 102  51   0 102  51   0 102  51   0 102  51   0 102  51   0 102  51   0 153  76   0   0   0   0 255 255 255 255 255 255 255 255 255 255 255 255 
255 255 255 255 255 255 255 255 255   0   0   0 102  51   0 102  51   0 153  76   0 153  76   0 153  76   0 153  76   0 153  76   0 102  51   0 102  51   0 102  51   0 102  51   0 102  51   0 102  51   0 102  51   0 153  76   0  51  25   0   0   0   0 255 255 255 255 255 255 255 255 255 
255 255 255 255 255 255 255 255 255   0   0   0  51  25   0 102  51   0 102  51   0 153  76   0 153  76   0 153  76   0 153  76   0 153  76   0 153  76   0 102  51   0 102  51   0 153  76   0 153  76   0 153  76   0 102  51   0  51  25   0   0   0   0 255 255 255 255 255 255 255 255 255 
255 255 255 255 255 255 255 255 255   0   0   0  51  25   0 102  51   0 102  51   0 102  51   0 102  51   0 153  76   0 153  76   0 153  76   0 153  76   0 153  76   0 153  76   0 153  76   0 102  51   0 102  51   0  51  25   0  51  25   0   0   0   0 255 255 255 255 255 255 255 255 255 
255 255 255 255 255 255 255 255 255   0   0   0  51  25   0  51  25   0  51  25   0 102  51   0 102  51   0 102  51   0 102  51   0 102  51   0 102  51   0 102  51   0 102  51   0 102  51   0 102  51   0  51  25   0  51  25   0  21  10   0   0   0   0 255 255 255 255 255 255 255 255 255 
255 255 255 218 181 145   0   0   0   0   0   0  51  25   0  51  25   0  51  25   0  51  25   0  51  25   0  51  25   0  51  25   0  51  25   0  51  25   0  51  25   0  51  25   0  51  25   0  51  25   0  21  10   0  21  10   0 218 181 145   0   0   0   0   0   0 218 181 145 255 255 255 
255 255 255   0   0   0 255 229 204 255 229 204  21  10   0  51  25   0  51  25   0  21  10   0  21  10   0  21  10   0  21  10   0  21  10   0  21  10   0  21  10   0  21  10   0  21  10   0  21  10   0 218 181 145 218 181 145 255 229 204 255 229 204 255 229 204   0   0   0 255 255 255
255 255 255   0   0   0 255 229 204 218 181 145 255 229 204  51  25   0  21  10   0 218 181 145 181 164 147 181 164 147 218 181 145 218 181 145 218 181 145 218 181 145 181 164 147 181 164 147 218 181 145 255 229 204 255 229 204 255 229 204 218 181 145 255 229 204   0   0   0 255 255 255 
255 255 255   0   0   0 255 229 204 218 181 145 255 229 204  21  10   0 255 229 204 255 229 204 224 224 224   0   0   0 255 229 204 255 229 204 255 229 204 255 229 204   0   0   0 224 224 224 255 229 204 255 229 204 255 229 204 255 229 204 218 181 145 255 229 204   0   0   0 255 255 255 
255 255 255 255 255 255  50  50  50 218 181 145 255 229 204 255 229 204 255 229 204 255 229 204 255 255 255   0   0   0 255 229 204 255 229 204 255 229 204 255 229 204   0   0   0 255 255 255 255 229 204 255 229 204 255 229 204 255 229 204 218 181 145  50  50  50 255 255 255 255 255 255 
255 255 255 255 255 255 255 255 255 255 255 255 181 154 126 255 229 204 255 229 204 255 229 204 255 229 204 255 229 204 255 229 204 218 181 145 218 181 145 255 229 204 255 229 204 255 229 204 255 229 204 255 229 204 255 229 204 181 154 126 255 255 255 255 255 255 255 255 255 255 255 255 
255 255 255 255 255 255 255 255 255 255 255 255 181 154 126 255 229 204 255 229 204 255 229 204 255 229 204 255 229 204 255 229 204 255 229 204 255 229 204 255 229 204 255 229 204 255 229 204 255 229 204 255 229 204 255 229 204 181 154 126 255 255 255 255 255 255 255 255 255 255 255 255 
255 255 255 255 255 255 255 255 255 255 255 255 255 255 255 181 154 126 255 229 204 255 229 204 255 229 204 255 229 204   0   0   0   0   0   0   0   0   0   0   0   0 255 229 204 255 229 204 255 229 204 255 229 204 181 154 126 255 255 255 255 255 255 255 255 255 255 255 255 255 255 255 
255 255 255 255 255 255 255 255 255 255 255 255 255 255 255 255 255 255 181 154 126 181 154 126 255 229 204 255 229 204 255 229 204 255 229 204 255 229 204 255 229 204 255 229 204 255 229 204 181 154 126 181 154 126 255 255 255 255 255 255 255 255 255 255 255 255 255 255 255 255 255 255 
255 255 255 255 255 255 255 255 255 255 255 255 255 255 255 255 255 255 255 255 255  50  50  50 144 123 102 144 123 102 144 123 102 144 123 102 144 123 102 144 123 102 144 123 102 144 123 102  50  50  50 255 255 255 255 255 255 255 255 255 255 255 255 255 255 255 255 255 255 255 255 255 
255 255 255 255 255 255 255 255 255 255 255 255 255 255 255 255 255 255   0   0   0   0 102   0   0 102   0   0 102   0   0 102   0   0 102   0   0 102   0   0 102   0   0 102   0   0 102   0   0 102   0   0   0   0 255 255 255 255 255 255 255 255 255 255 255 255 255 255 255 255 255 255 
255 255 255 255 255 255 255 255 255 255 255 255 255 255 255 144 123 102   2   2   2   0 102   0   0 102   0   0 102   0   0 102   0   0 102   0   0 102   0   0 102   0   0 102   0   0 102   0   0 102   0   2   2   2 144 123 102 255 255 255 255 255 255 255 255 255 255 255 255 255 255 255 
255 255 255 255 255 255 255 255 255 255 255 255   0   0   0 255 229 204 255 229 204   2   2   2   0 102   0   0 102   0   0 102   0   0 102   0   0 102   0   0 102   0   0 102   0   0 102   0   2   2   2 255 229 204 255 229 204   0   0   0 255 255 255 255 255 255 255 255 255 255 255 255 
255 255 255 255 255 255 255 255 255 255 255 255   0   0   0 255 229 204 255 229 204   0   0   0   0 102   0   0 102   0   0 102   0   0 102   0   0 102   0   0 102   0   0 102   0   0 102   0   0   0   0 255 229 204 255 229 204   0   0   0 255 255 255 255 255 255 255 255 255 255 255 255 
255 255 255 255 255 255 255 255 255 255 255 255 255 255 255   0   0   0   0   0   0  50  50  50   0   0   0   0   0   0   0   0   0   0   0   0   0   0   0   0   0   0   0   0   0   0   0   0  50  50  50   0   0   0   0   0   0 255 255 255 255 255 255 255 255 255 255 255 255 255 255 255 
255 255 255 255 255 255 255 255 255 255 255 255 255 255 255 255 255 255 255 255 255   0   0   0   0   0   0  96  96  96  96  96  96  96  96  96  96  96  96  96  96  96  96  96  96   0   0   0   0   0   0 255 255 255 255 255 255 255 255 255 255 255 255 255 255 255 255 255 255 255 255 255 
255 255 255 255 255 255 255 255 255 255 255 255 255 255 255 255 255 255 255 255 255   0   0   0  96  96  96  96  96  96   0   0   0   0   0   0   0   0   0   0   0   0  96  96  96  96  96  96   0   0   0 255 255 255 255 255 255 255 255 255 255 255 255 255 255 255 255 255 255 255 255 255 
255 255 255 255 255 255 255 255 255 255 255 255 255 255 255 255 255 255 255 255 255 255 255 255   0   0   0   0   0   0 255 255 255 255 255 255 255 255 255 255 255 255   0   0   0   0   0   0 255 255 255 255 255 255 255 255 255 255 255 255 255 255 255 255 255 255 255 255 255 255 255 255